<svg class="rich-terminal" viewBox="0 0 1482 318.4" xmlns="http://www.w3.org/2000/svg">
    <!-- Generated with Rich https://www.textualize.io -->
    <style>

    @font-face {
        font-family: "Fira Code";
        src: local("FiraCode-Regular"),
                url("https://cdnjs.cloudflare.com/ajax/libs/firacode/6.2.0/woff2/FiraCode-Regular.woff2") format("woff2"),
                url("https://cdnjs.cloudflare.com/ajax/libs/firacode/6.2.0/woff/FiraCode-Regular.woff") format("woff");
        font-style: normal;
        font-weight: 400;
    }
    @font-face {
        font-family: "Fira Code";
        src: local("FiraCode-Bold"),
                url("https://cdnjs.cloudflare.com/ajax/libs/firacode/6.2.0/woff2/FiraCode-Bold.woff2") format("woff2"),
                url("https://cdnjs.cloudflare.com/ajax/libs/firacode/6.2.0/woff/FiraCode-Bold.woff") format("woff");
        font-style: bold;
        font-weight: 700;
    }

    .terminal-406037839-matrix {
        font-family: Fira Code, monospace;
        font-size: 20px;
        line-height: 24.4px;
        font-variant-east-asian: full-width;
    }

    .terminal-406037839-title {
        font-size: 18px;
        font-weight: bold;
        font-family: arial;
    }

    .terminal-406037839-r1 { fill: #f59e0b }
.terminal-406037839-r2 { fill: #c5c8c6 }
.terminal-406037839-r3 { fill: #cbd5e1 }
    </style>

    <defs>
    <clipPath id="terminal-406037839-clip-terminal">
      <rect x="0" y="0" width="1463.0" height="267.4" />
    </clipPath>
    <clipPath id="terminal-406037839-line-0">
    <rect x="0" y="1.5" width="1464" height="24.65"/>
            </clipPath>
<clipPath id="terminal-406037839-line-1">
    <rect x="0" y="25.9" width="1464" height="24.65"/>
            </clipPath>
<clipPath id="terminal-406037839-line-2">
    <rect x="0" y="50.3" width="1464" height="24.65"/>
            </clipPath>
<clipPath id="terminal-406037839-line-3">
    <rect x="0" y="74.7" width="1464" height="24.65"/>
            </clipPath>
<clipPath id="terminal-406037839-line-4">
    <rect x="0" y="99.1" width="1464" height="24.65"/>
            </clipPath>
<clipPath id="terminal-406037839-line-5">
    <rect x="0" y="123.5" width="1464" height="24.65"/>
            </clipPath>
<clipPath id="terminal-406037839-line-6">
    <rect x="0" y="147.9" width="1464" height="24.65"/>
            </clipPath>
<clipPath id="terminal-406037839-line-7">
    <rect x="0" y="172.3" width="1464" height="24.65"/>
            </clipPath>
<clipPath id="terminal-406037839-line-8">
    <rect x="0" y="196.7" width="1464" height="24.65"/>
            </clipPath>
<clipPath id="terminal-406037839-line-9">
    <rect x="0" y="221.1" width="1464" height="24.65"/>
            </clipPath>
    </defs>

    <rect fill="#292929" stroke="rgba(255,255,255,0.35)" stroke-width="1" x="1" y="1" width="1480" height="316.4" rx="8"/><text class="terminal-406037839-title" fill="#c5c8c6" text-anchor="middle" x="740" y="27">Acme&#160;Components&#160;-&#160;Analytics</text>
            <g transform="translate(26,22)">
            <circle cx="0" cy="0" r="7" fill="#ff5f57"/>
            <circle cx="22" cy="0" r="7" fill="#febc2e"/>
            <circle cx="44" cy="0" r="7" fill="#28c840"/>
            </g>
        
    <g transform="translate(9, 41)" clip-path="url(#terminal-406037839-clip-terminal)">
    <rect fill="#0b1220" x="0" y="1.5" width="24.4" height="24.65" shape-rendering="crispEdges"/><rect fill="#0b1220" x="24.4" y="1.5" width="280.6" height="24.65" shape-rendering="crispEdges"/><rect fill="#0b1220" x="305" y="1.5" width="1134.6" height="24.65" shape-rendering="crispEdges"/><rect fill="#0b1220" x="1439.6" y="1.5" width="24.4" height="24.65" shape-rendering="crispEdges"/><rect fill="#0b1220" x="0" y="25.9" width="12.2" height="24.65" shape-rendering="crispEdges"/><rect fill="#0b1220" x="12.2" y="25.9" width="1439.6" height="24.65" shape-rendering="crispEdges"/><rect fill="#0b1220" x="1451.8" y="25.9" width="12.2" height="24.65" shape-rendering="crispEdges"/><rect fill="#0b1220" x="0" y="50.3" width="12.2" height="24.65" shape-rendering="crispEdges"/><rect fill="#0b1220" x="12.2" y="50.3" width="24.4" height="24.65" shape-rendering="crispEdges"/><rect fill="#0b1220" x="36.6" y="50.3" width="366" height="24.65" shape-rendering="crispEdges"/><rect fill="#0b1220" x="402.6" y="50.3" width="1024.8" height="24.65" shape-rendering="crispEdges"/><rect fill="#0b1220" x="1427.4" y="50.3" width="24.4" height="24.65" shape-rendering="crispEdges"/><rect fill="#0b1220" x="1451.8" y="50.3" width="12.2" height="24.65" shape-rendering="crispEdges"/><rect fill="#0b1220" x="0" y="74.7" width="12.2" height="24.65" shape-rendering="crispEdges"/><rect fill="#0b1220" x="12.2" y="74.7" width="24.4" height="24.65" shape-rendering="crispEdges"/><rect fill="#0b1220" x="36.6" y="74.7" width="378.2" height="24.65" shape-rendering="crispEdges"/><rect fill="#0b1220" x="414.8" y="74.7" width="1012.6" height="24.65" shape-rendering="crispEdges"/><rect fill="#0b1220" x="1427.4" y="74.7" width="24.4" height="24.65" shape-rendering="crispEdges"/><rect fill="#0b1220" x="1451.8" y="74.7" width="12.2" height="24.65" shape-rendering="crispEdges"/><rect fill="#0b1220" x="0" y="99.1" width="12.2" height="24.65" shape-rendering="crispEdges"/><rect fill="#0b1220" x="12.2" y="99.1" width="24.4" height="24.65" shape-rendering="crispEdges"/><rect fill="#0b1220" x="36.6" y="99.1" width="378.2" height="24.65" shape-rendering="crispEdges"/><rect fill="#0b1220" x="414.8" y="99.1" width="1012.6" height="24.65" shape-rendering="crispEdges"/><rect fill="#0b1220" x="1427.4" y="99.1" width="24.4" height="24.65" shape-rendering="crispEdges"/><rect fill="#0b1220" x="1451.8" y="99.1" width="12.2" height="24.65" shape-rendering="crispEdges"/><rect fill="#0b1220" x="0" y="123.5" width="12.2" height="24.65" shape-rendering="crispEdges"/><rect fill="#0b1220" x="12.2" y="123.5" width="24.4" height="24.65" shape-rendering="crispEdges"/><rect fill="#0b1220" x="36.6" y="123.5" width="292.8" height="24.65" shape-rendering="crispEdges"/><rect fill="#0b1220" x="329.4" y="123.5" width="1098" height="24.65" shape-rendering="crispEdges"/><rect fill="#0b1220" x="1427.4" y="123.5" width="24.4" height="24.65" shape-rendering="crispEdges"/><rect fill="#0b1220" x="1451.8" y="123.5" width="12.2" height="24.65" shape-rendering="crispEdges"/><rect fill="#0b1220" x="0" y="147.9" width="12.2" height="24.65" shape-rendering="crispEdges"/><rect fill="#0b1220" x="12.2" y="147.9" width="24.4" height="24.65" shape-rendering="crispEdges"/><rect fill="#0b1220" x="36.6" y="147.9" width="122" height="24.65" shape-rendering="crispEdges"/><rect fill="#0b1220" x="158.6" y="147.9" width="1268.8" height="24.65" shape-rendering="crispEdges"/><rect fill="#0b1220" x="1427.4" y="147.9" width="24.4" height="24.65" shape-rendering="crispEdges"/><rect fill="#0b1220" x="1451.8" y="147.9" width="12.2" height="24.65" shape-rendering="crispEdges"/><rect fill="#0b1220" x="0" y="172.3" width="12.2" height="24.65" shape-rendering="crispEdges"/><rect fill="#0b1220" x="12.2" y="172.3" width="24.4" height="24.65" shape-rendering="crispEdges"/><rect fill="#0b1220" x="36.6" y="172.3" width="488" height="24.65" shape-rendering="crispEdges"/><rect fill="#0b1220" x="524.6" y="172.3" width="902.8" height="24.65" shape-rendering="crispEdges"/><rect fill="#0b1220" x="1427.4" y="172.3" width="24.4" height="24.65" shape-rendering="crispEdges"/><rect fill="#0b1220" x="1451.8" y="172.3" width="12.2" height="24.65" shape-rendering="crispEdges"/><rect fill="#0b1220" x="0" y="196.7" width="12.2" height="24.65" shape-rendering="crispEdges"/><rect fill="#0b1220" x="12.2" y="196.7" width="24.4" height="24.65" shape-rendering="crispEdges"/><rect fill="#0b1220" x="36.6" y="196.7" width="414.8" height="24.65" shape-rendering="crispEdges"/><rect fill="#0b1220" x="451.4" y="196.7" width="976" height="24.65" shape-rendering="crispEdges"/><rect fill="#0b1220" x="1427.4" y="196.7" width="24.4" height="24.65" shape-rendering="crispEdges"/><rect fill="#0b1220" x="1451.8" y="196.7" width="12.2" height="24.65" shape-rendering="crispEdges"/><rect fill="#0b1220" x="0" y="221.1" width="12.2" height="24.65" shape-rendering="crispEdges"/><rect fill="#0b1220" x="12.2" y="221.1" width="1439.6" height="24.65" shape-rendering="crispEdges"/><rect fill="#0b1220" x="1451.8" y="221.1" width="12.2" height="24.65" shape-rendering="crispEdges"/><rect fill="#0b1220" x="0" y="245.5" width="1464" height="24.65" shape-rendering="crispEdges"/>
    <g class="terminal-406037839-matrix">
    <text class="terminal-406037839-r1" x="0" y="20" textLength="24.4" clip-path="url(#terminal-406037839-line-0)">╭─</text><text class="terminal-406037839-r1" x="24.4" y="20" textLength="280.6" clip-path="url(#terminal-406037839-line-0)">&#160;Analytics&#160;&amp;&#160;A/B&#160;Tests&#160;</text><text class="terminal-406037839-r1" x="305" y="20" textLength="1134.6" clip-path="url(#terminal-406037839-line-0)">─────────────────────────────────────────────────────────────────────────────────────────────</text><text class="terminal-406037839-r1" x="1439.6" y="20" textLength="24.4" clip-path="url(#terminal-406037839-line-0)">─╮</text><text class="terminal-406037839-r2" x="1464" y="20" textLength="12.2" clip-path="url(#terminal-406037839-line-0)">
</text><text class="terminal-406037839-r1" x="0" y="44.4" textLength="12.2" clip-path="url(#terminal-406037839-line-1)">│</text><text class="terminal-406037839-r1" x="1451.8" y="44.4" textLength="12.2" clip-path="url(#terminal-406037839-line-1)">│</text><text class="terminal-406037839-r2" x="1464" y="44.4" textLength="12.2" clip-path="url(#terminal-406037839-line-1)">
</text><text class="terminal-406037839-r1" x="0" y="68.8" textLength="12.2" clip-path="url(#terminal-406037839-line-2)">│</text><text class="terminal-406037839-r3" x="36.6" y="68.8" textLength="366" clip-path="url(#terminal-406037839-line-2)">Open&#160;rate:&#160;46.0%&#160;(+64%&#160;vs&#160;avg)</text><text class="terminal-406037839-r1" x="1451.8" y="68.8" textLength="12.2" clip-path="url(#terminal-406037839-line-2)">│</text><text class="terminal-406037839-r2" x="1464" y="68.8" textLength="12.2" clip-path="url(#terminal-406037839-line-2)">
</text><text class="terminal-406037839-r1" x="0" y="93.2" textLength="12.2" clip-path="url(#terminal-406037839-line-3)">│</text><text class="terminal-406037839-r3" x="36.6" y="93.2" textLength="378.2" clip-path="url(#terminal-406037839-line-3)">Click&#160;rate:&#160;23.0%&#160;(+53%&#160;vs&#160;avg)</text><text class="terminal-406037839-r1" x="1451.8" y="93.2" textLength="12.2" clip-path="url(#terminal-406037839-line-3)">│</text><text class="terminal-406037839-r2" x="1464" y="93.2" textLength="12.2" clip-path="url(#terminal-406037839-line-3)">
</text><text class="terminal-406037839-r1" x="0" y="117.6" textLength="12.2" clip-path="url(#terminal-406037839-line-4)">│</text><text class="terminal-406037839-r3" x="36.6" y="117.6" textLength="378.2" clip-path="url(#terminal-406037839-line-4)">Reply&#160;rate:&#160;14.0%&#160;(+40%&#160;vs&#160;avg)</text><text class="terminal-406037839-r1" x="1451.8" y="117.6" textLength="12.2" clip-path="url(#terminal-406037839-line-4)">│</text><text class="terminal-406037839-r2" x="1464" y="117.6" textLength="12.2" clip-path="url(#terminal-406037839-line-4)">
</text><text class="terminal-406037839-r1" x="0" y="142" textLength="12.2" clip-path="url(#terminal-406037839-line-5)">│</text><text class="terminal-406037839-r3" x="36.6" y="142" textLength="292.8" clip-path="url(#terminal-406037839-line-5)">Conversions&#160;this&#160;week:&#160;5</text><text class="terminal-406037839-r1" x="1451.8" y="142" textLength="12.2" clip-path="url(#terminal-406037839-line-5)">│</text><text class="terminal-406037839-r2" x="1464" y="142" textLength="12.2" clip-path="url(#terminal-406037839-line-5)">
</text><text class="terminal-406037839-r1" x="0" y="166.4" textLength="12.2" clip-path="url(#terminal-406037839-line-6)">│</text><text class="terminal-406037839-r3" x="36.6" y="166.4" textLength="122" clip-path="url(#terminal-406037839-line-6)">A/B&#160;tests:</text><text class="terminal-406037839-r1" x="1451.8" y="166.4" textLength="12.2" clip-path="url(#terminal-406037839-line-6)">│</text><text class="terminal-406037839-r2" x="1464" y="166.4" textLength="12.2" clip-path="url(#terminal-406037839-line-6)">
</text><text class="terminal-406037839-r1" x="0" y="190.8" textLength="12.2" clip-path="url(#terminal-406037839-line-7)">│</text><text class="terminal-406037839-r3" x="36.6" y="190.8" textLength="488" clip-path="url(#terminal-406037839-line-7)">&#160;•&#160;CTA&#160;copy&#160;winner:&#160;Book&#160;a&#160;call&#160;(+12.0%)</text><text class="terminal-406037839-r1" x="1451.8" y="190.8" textLength="12.2" clip-path="url(#terminal-406037839-line-7)">│</text><text class="terminal-406037839-r2" x="1464" y="190.8" textLength="12.2" clip-path="url(#terminal-406037839-line-7)">
</text><text class="terminal-406037839-r1" x="0" y="215.2" textLength="12.2" clip-path="url(#terminal-406037839-line-8)">│</text><text class="terminal-406037839-r3" x="36.6" y="215.2" textLength="414.8" clip-path="url(#terminal-406037839-line-8)">&#160;•&#160;Send&#160;time&#160;winner:&#160;09:00&#160;(+8.0%)</text><text class="terminal-406037839-r1" x="1451.8" y="215.2" textLength="12.2" clip-path="url(#terminal-406037839-line-8)">│</text><text class="terminal-406037839-r2" x="1464" y="215.2" textLength="12.2" clip-path="url(#terminal-406037839-line-8)">
</text><text class="terminal-406037839-r1" x="0" y="239.6" textLength="12.2" clip-path="url(#terminal-406037839-line-9)">│</text><text class="terminal-406037839-r1" x="1451.8" y="239.6" textLength="12.2" clip-path="url(#terminal-406037839-line-9)">│</text><text class="terminal-406037839-r2" x="1464" y="239.6" textLength="12.2" clip-path="url(#terminal-406037839-line-9)">
</text><text class="terminal-406037839-r1" x="0" y="264" textLength="1464" clip-path="url(#terminal-406037839-line-10)">╰──────────────────────────────────────────────────────────────────────────────────────────────────────────────────────╯</text><text class="terminal-406037839-r2" x="1464" y="264" textLength="12.2" clip-path="url(#terminal-406037839-line-10)">
</text>
    </g>
    </g>
</svg>
