<svg class="rich-terminal" viewBox="0 0 1482 269.6" xmlns="http://www.w3.org/2000/svg">
    <!-- Generated with Rich https://www.textualize.io -->
    <style>

    @font-face {
        font-family: "Fira Code";
        src: local("FiraCode-Regular"),
                url("https://cdnjs.cloudflare.com/ajax/libs/firacode/6.2.0/woff2/FiraCode-Regular.woff2") format("woff2"),
                url("https://cdnjs.cloudflare.com/ajax/libs/firacode/6.2.0/woff/FiraCode-Regular.woff") format("woff");
        font-style: normal;
        font-weight: 400;
    }
    @font-face {
        font-family: "Fira Code";
        src: local("FiraCode-Bold"),
                url("https://cdnjs.cloudflare.com/ajax/libs/firacode/6.2.0/woff2/FiraCode-Bold.woff2") format("woff2"),
                url("https://cdnjs.cloudflare.com/ajax/libs/firacode/6.2.0/woff/FiraCode-Bold.woff") format("woff");
        font-style: bold;
        font-weight: 700;
    }

    .terminal-3646376085-matrix {
        font-family: Fira Code, monospace;
        font-size: 20px;
        line-height: 24.4px;
        font-variant-east-asian: full-width;
    }

    .terminal-3646376085-title {
        font-size: 18px;
        font-weight: bold;
        font-family: arial;
    }

    .terminal-3646376085-r1 { fill: #38bdf8;font-weight: bold }
.terminal-3646376085-r2 { fill: #c5c8c6 }
.terminal-3646376085-r3 { fill: #38bdf8 }
.terminal-3646376085-r4 { fill: #c5c8c6;font-weight: bold }
.terminal-3646376085-r5 { fill: #cbd5e1 }
.terminal-3646376085-r6 { fill: #68a0b3 }
.terminal-3646376085-r7 { fill: #d0b344 }
.terminal-3646376085-r8 { fill: #98a84b }
    </style>

    <defs>
    <clipPath id="terminal-3646376085-clip-terminal">
      <rect x="0" y="0" width="1463.0" height="218.6" />
    </clipPath>
    <clipPath id="terminal-3646376085-line-0">
    <rect x="0" y="1.5" width="1464" height="24.65"/>
            </clipPath>
<clipPath id="terminal-3646376085-line-1">
    <rect x="0" y="25.9" width="1464" height="24.65"/>
            </clipPath>
<clipPath id="terminal-3646376085-line-2">
    <rect x="0" y="50.3" width="1464" height="24.65"/>
            </clipPath>
<clipPath id="terminal-3646376085-line-3">
    <rect x="0" y="74.7" width="1464" height="24.65"/>
            </clipPath>
<clipPath id="terminal-3646376085-line-4">
    <rect x="0" y="99.1" width="1464" height="24.65"/>
            </clipPath>
<clipPath id="terminal-3646376085-line-5">
    <rect x="0" y="123.5" width="1464" height="24.65"/>
            </clipPath>
<clipPath id="terminal-3646376085-line-6">
    <rect x="0" y="147.9" width="1464" height="24.65"/>
            </clipPath>
<clipPath id="terminal-3646376085-line-7">
    <rect x="0" y="172.3" width="1464" height="24.65"/>
            </clipPath>
    </defs>

    <rect fill="#292929" stroke="rgba(255,255,255,0.35)" stroke-width="1" x="1" y="1" width="1480" height="267.6" rx="8"/><text class="terminal-3646376085-title" fill="#c5c8c6" text-anchor="middle" x="740" y="27">Acme&#160;Components&#160;-&#160;Campaigns</text>
            <g transform="translate(26,22)">
            <circle cx="0" cy="0" r="7" fill="#ff5f57"/>
            <circle cx="22" cy="0" r="7" fill="#febc2e"/>
            <circle cx="44" cy="0" r="7" fill="#28c840"/>
            </g>
        
    <g transform="translate(9, 41)" clip-path="url(#terminal-3646376085-clip-terminal)">
    <rect fill="#0b1220" x="0" y="25.9" width="1464" height="24.65" shape-rendering="crispEdges"/><rect fill="#0b1220" x="0" y="50.3" width="12.2" height="24.65" shape-rendering="crispEdges"/><rect fill="#0b1220" x="256.2" y="50.3" width="12.2" height="24.65" shape-rendering="crispEdges"/><rect fill="#0b1220" x="488" y="50.3" width="12.2" height="24.65" shape-rendering="crispEdges"/><rect fill="#0b1220" x="695.4" y="50.3" width="12.2" height="24.65" shape-rendering="crispEdges"/><rect fill="#0b1220" x="939.4" y="50.3" width="12.2" height="24.65" shape-rendering="crispEdges"/><rect fill="#0b1220" x="1146.8" y="50.3" width="12.2" height="24.65" shape-rendering="crispEdges"/><rect fill="#0b1220" x="1305.4" y="50.3" width="12.2" height="24.65" shape-rendering="crispEdges"/><rect fill="#0b1220" x="1451.8" y="50.3" width="12.2" height="24.65" shape-rendering="crispEdges"/><rect fill="#0b1220" x="0" y="74.7" width="1464" height="24.65" shape-rendering="crispEdges"/><rect fill="#0b1220" x="0" y="99.1" width="12.2" height="24.65" shape-rendering="crispEdges"/><rect fill="#0b1220" x="12.2" y="99.1" width="12.2" height="24.65" shape-rendering="crispEdges"/><rect fill="#0b1220" x="24.4" y="99.1" width="219.6" height="24.65" shape-rendering="crispEdges"/><rect fill="#0b1220" x="244" y="99.1" width="12.2" height="24.65" shape-rendering="crispEdges"/><rect fill="#0b1220" x="256.2" y="99.1" width="12.2" height="24.65" shape-rendering="crispEdges"/><rect fill="#0b1220" x="268.4" y="99.1" width="12.2" height="24.65" shape-rendering="crispEdges"/><rect fill="#0b1220" x="280.6" y="99.1" width="195.2" height="24.65" shape-rendering="crispEdges"/><rect fill="#0b1220" x="475.8" y="99.1" width="12.2" height="24.65" shape-rendering="crispEdges"/><rect fill="#0b1220" x="488" y="99.1" width="12.2" height="24.65" shape-rendering="crispEdges"/><rect fill="#0b1220" x="500.2" y="99.1" width="12.2" height="24.65" shape-rendering="crispEdges"/><rect fill="#0b1220" x="512.4" y="99.1" width="170.8" height="24.65" shape-rendering="crispEdges"/><rect fill="#0b1220" x="683.2" y="99.1" width="12.2" height="24.65" shape-rendering="crispEdges"/><rect fill="#0b1220" x="695.4" y="99.1" width="12.2" height="24.65" shape-rendering="crispEdges"/><rect fill="#0b1220" x="707.6" y="99.1" width="12.2" height="24.65" shape-rendering="crispEdges"/><rect fill="#0b1220" x="719.8" y="99.1" width="207.4" height="24.65" shape-rendering="crispEdges"/><rect fill="#0b1220" x="927.2" y="99.1" width="12.2" height="24.65" shape-rendering="crispEdges"/><rect fill="#0b1220" x="939.4" y="99.1" width="12.2" height="24.65" shape-rendering="crispEdges"/><rect fill="#0b1220" x="951.6" y="99.1" width="12.2" height="24.65" shape-rendering="crispEdges"/><rect fill="#0b1220" x="963.8" y="99.1" width="170.8" height="24.65" shape-rendering="crispEdges"/><rect fill="#0b1220" x="1134.6" y="99.1" width="12.2" height="24.65" shape-rendering="crispEdges"/><rect fill="#0b1220" x="1146.8" y="99.1" width="12.2" height="24.65" shape-rendering="crispEdges"/><rect fill="#0b1220" x="1159" y="99.1" width="12.2" height="24.65" shape-rendering="crispEdges"/><rect fill="#0b1220" x="1171.2" y="99.1" width="122" height="24.65" shape-rendering="crispEdges"/><rect fill="#0b1220" x="1293.2" y="99.1" width="12.2" height="24.65" shape-rendering="crispEdges"/><rect fill="#0b1220" x="1305.4" y="99.1" width="12.2" height="24.65" shape-rendering="crispEdges"/><rect fill="#0b1220" x="1317.6" y="99.1" width="12.2" height="24.65" shape-rendering="crispEdges"/><rect fill="#0b1220" x="1329.8" y="99.1" width="109.8" height="24.65" shape-rendering="crispEdges"/><rect fill="#0b1220" x="1439.6" y="99.1" width="12.2" height="24.65" shape-rendering="crispEdges"/><rect fill="#0b1220" x="1451.8" y="99.1" width="12.2" height="24.65" shape-rendering="crispEdges"/><rect fill="#0b1220" x="0" y="123.5" width="12.2" height="24.65" shape-rendering="crispEdges"/><rect fill="#11192d" x="12.2" y="123.5" width="12.2" height="24.65" shape-rendering="crispEdges"/><rect fill="#11192d" x="24.4" y="123.5" width="219.6" height="24.65" shape-rendering="crispEdges"/><rect fill="#11192d" x="244" y="123.5" width="12.2" height="24.65" shape-rendering="crispEdges"/><rect fill="#0b1220" x="256.2" y="123.5" width="12.2" height="24.65" shape-rendering="crispEdges"/><rect fill="#11192d" x="268.4" y="123.5" width="12.2" height="24.65" shape-rendering="crispEdges"/><rect fill="#11192d" x="280.6" y="123.5" width="195.2" height="24.65" shape-rendering="crispEdges"/><rect fill="#11192d" x="475.8" y="123.5" width="12.2" height="24.65" shape-rendering="crispEdges"/><rect fill="#0b1220" x="488" y="123.5" width="12.2" height="24.65" shape-rendering="crispEdges"/><rect fill="#11192d" x="500.2" y="123.5" width="12.2" height="24.65" shape-rendering="crispEdges"/><rect fill="#11192d" x="512.4" y="123.5" width="170.8" height="24.65" shape-rendering="crispEdges"/><rect fill="#11192d" x="683.2" y="123.5" width="12.2" height="24.65" shape-rendering="crispEdges"/><rect fill="#0b1220" x="695.4" y="123.5" width="12.2" height="24.65" shape-rendering="crispEdges"/><rect fill="#11192d" x="707.6" y="123.5" width="12.2" height="24.65" shape-rendering="crispEdges"/><rect fill="#11192d" x="719.8" y="123.5" width="207.4" height="24.65" shape-rendering="crispEdges"/><rect fill="#11192d" x="927.2" y="123.5" width="12.2" height="24.65" shape-rendering="crispEdges"/><rect fill="#0b1220" x="939.4" y="123.5" width="12.2" height="24.65" shape-rendering="crispEdges"/><rect fill="#11192d" x="951.6" y="123.5" width="12.2" height="24.65" shape-rendering="crispEdges"/><rect fill="#11192d" x="963.8" y="123.5" width="170.8" height="24.65" shape-rendering="crispEdges"/><rect fill="#11192d" x="1134.6" y="123.5" width="12.2" height="24.65" shape-rendering="crispEdges"/><rect fill="#0b1220" x="1146.8" y="123.5" width="12.2" height="24.65" shape-rendering="crispEdges"/><rect fill="#11192d" x="1159" y="123.5" width="12.2" height="24.65" shape-rendering="crispEdges"/><rect fill="#11192d" x="1171.2" y="123.5" width="122" height="24.65" shape-rendering="crispEdges"/><rect fill="#11192d" x="1293.2" y="123.5" width="12.2" height="24.65" shape-rendering="crispEdges"/><rect fill="#0b1220" x="1305.4" y="123.5" width="12.2" height="24.65" shape-rendering="crispEdges"/><rect fill="#11192d" x="1317.6" y="123.5" width="12.2" height="24.65" shape-rendering="crispEdges"/><rect fill="#11192d" x="1329.8" y="123.5" width="109.8" height="24.65" shape-rendering="crispEdges"/><rect fill="#11192d" x="1439.6" y="123.5" width="12.2" height="24.65" shape-rendering="crispEdges"/><rect fill="#0b1220" x="1451.8" y="123.5" width="12.2" height="24.65" shape-rendering="crispEdges"/><rect fill="#0b1220" x="0" y="147.9" width="12.2" height="24.65" shape-rendering="crispEdges"/><rect fill="#0b1220" x="12.2" y="147.9" width="12.2" height="24.65" shape-rendering="crispEdges"/><rect fill="#0b1220" x="24.4" y="147.9" width="219.6" height="24.65" shape-rendering="crispEdges"/><rect fill="#0b1220" x="244" y="147.9" width="12.2" height="24.65" shape-rendering="crispEdges"/><rect fill="#0b1220" x="256.2" y="147.9" width="12.2" height="24.65" shape-rendering="crispEdges"/><rect fill="#0b1220" x="268.4" y="147.9" width="12.2" height="24.65" shape-rendering="crispEdges"/><rect fill="#0b1220" x="280.6" y="147.9" width="195.2" height="24.65" shape-rendering="crispEdges"/><rect fill="#0b1220" x="475.8" y="147.9" width="12.2" height="24.65" shape-rendering="crispEdges"/><rect fill="#0b1220" x="488" y="147.9" width="12.2" height="24.65" shape-rendering="crispEdges"/><rect fill="#0b1220" x="500.2" y="147.9" width="12.2" height="24.65" shape-rendering="crispEdges"/><rect fill="#0b1220" x="512.4" y="147.9" width="170.8" height="24.65" shape-rendering="crispEdges"/><rect fill="#0b1220" x="683.2" y="147.9" width="12.2" height="24.65" shape-rendering="crispEdges"/><rect fill="#0b1220" x="695.4" y="147.9" width="12.2" height="24.65" shape-rendering="crispEdges"/><rect fill="#0b1220" x="707.6" y="147.9" width="12.2" height="24.65" shape-rendering="crispEdges"/><rect fill="#0b1220" x="719.8" y="147.9" width="207.4" height="24.65" shape-rendering="crispEdges"/><rect fill="#0b1220" x="927.2" y="147.9" width="12.2" height="24.65" shape-rendering="crispEdges"/><rect fill="#0b1220" x="939.4" y="147.9" width="12.2" height="24.65" shape-rendering="crispEdges"/><rect fill="#0b1220" x="951.6" y="147.9" width="12.2" height="24.65" shape-rendering="crispEdges"/><rect fill="#0b1220" x="963.8" y="147.9" width="170.8" height="24.65" shape-rendering="crispEdges"/><rect fill="#0b1220" x="1134.6" y="147.9" width="12.2" height="24.65" shape-rendering="crispEdges"/><rect fill="#0b1220" x="1146.8" y="147.9" width="12.2" height="24.65" shape-rendering="crispEdges"/><rect fill="#0b1220" x="1159" y="147.9" width="12.2" height="24.65" shape-rendering="crispEdges"/><rect fill="#0b1220" x="1171.2" y="147.9" width="122" height="24.65" shape-rendering="crispEdges"/><rect fill="#0b1220" x="1293.2" y="147.9" width="12.2" height="24.65" shape-rendering="crispEdges"/><rect fill="#0b1220" x="1305.4" y="147.9" width="12.2" height="24.65" shape-rendering="crispEdges"/><rect fill="#0b1220" x="1317.6" y="147.9" width="12.2" height="24.65" shape-rendering="crispEdges"/><rect fill="#0b1220" x="1329.8" y="147.9" width="109.8" height="24.65" shape-rendering="crispEdges"/><rect fill="#0b1220" x="1439.6" y="147.9" width="12.2" height="24.65" shape-rendering="crispEdges"/><rect fill="#0b1220" x="1451.8" y="147.9" width="12.2" height="24.65" shape-rendering="crispEdges"/><rect fill="#0b1220" x="0" y="172.3" width="12.2" height="24.65" shape-rendering="crispEdges"/><rect fill="#0b1220" x="12.2" y="172.3" width="12.2" height="24.65" shape-rendering="crispEdges"/><rect fill="#0b1220" x="24.4" y="172.3" width="219.6" height="24.65" shape-rendering="crispEdges"/><rect fill="#0b1220" x="244" y="172.3" width="12.2" height="24.65" shape-rendering="crispEdges"/><rect fill="#0b1220" x="256.2" y="172.3" width="12.2" height="24.65" shape-rendering="crispEdges"/><rect fill="#0b1220" x="268.4" y="172.3" width="219.6" height="24.65" shape-rendering="crispEdges"/><rect fill="#0b1220" x="488" y="172.3" width="12.2" height="24.65" shape-rendering="crispEdges"/><rect fill="#0b1220" x="500.2" y="172.3" width="195.2" height="24.65" shape-rendering="crispEdges"/><rect fill="#0b1220" x="695.4" y="172.3" width="12.2" height="24.65" shape-rendering="crispEdges"/><rect fill="#0b1220" x="707.6" y="172.3" width="231.8" height="24.65" shape-rendering="crispEdges"/><rect fill="#0b1220" x="939.4" y="172.3" width="12.2" height="24.65" shape-rendering="crispEdges"/><rect fill="#0b1220" x="951.6" y="172.3" width="195.2" height="24.65" shape-rendering="crispEdges"/><rect fill="#0b1220" x="1146.8" y="172.3" width="12.2" height="24.65" shape-rendering="crispEdges"/><rect fill="#0b1220" x="1159" y="172.3" width="146.4" height="24.65" shape-rendering="crispEdges"/><rect fill="#0b1220" x="1305.4" y="172.3" width="12.2" height="24.65" shape-rendering="crispEdges"/><rect fill="#0b1220" x="1317.6" y="172.3" width="134.2" height="24.65" shape-rendering="crispEdges"/><rect fill="#0b1220" x="1451.8" y="172.3" width="12.2" height="24.65" shape-rendering="crispEdges"/><rect fill="#0b1220" x="0" y="196.7" width="1464" height="24.65" shape-rendering="crispEdges"/>
    <g class="terminal-3646376085-matrix">
    <text class="terminal-3646376085-r1" x="0" y="20" textLength="1464" clip-path="url(#terminal-3646376085-line-0)">&#160;&#160;&#160;&#160;&#160;&#160;&#160;&#160;&#160;&#160;&#160;&#160;&#160;&#160;&#160;&#160;&#160;&#160;&#160;&#160;&#160;&#160;&#160;&#160;&#160;&#160;&#160;&#160;&#160;&#160;&#160;&#160;&#160;&#160;&#160;&#160;&#160;&#160;&#160;&#160;&#160;&#160;&#160;&#160;&#160;&#160;&#160;&#160;&#160;&#160;&#160;&#160;&#160;&#160;&#160;Automation&#160;&#160;&#160;&#160;&#160;&#160;&#160;&#160;&#160;&#160;&#160;&#160;&#160;&#160;&#160;&#160;&#160;&#160;&#160;&#160;&#160;&#160;&#160;&#160;&#160;&#160;&#160;&#160;&#160;&#160;&#160;&#160;&#160;&#160;&#160;&#160;&#160;&#160;&#160;&#160;&#160;&#160;&#160;&#160;&#160;&#160;&#160;&#160;&#160;&#160;&#160;&#160;&#160;&#160;&#160;</text><text class="terminal-3646376085-r2" x="1464" y="20" textLength="12.2" clip-path="url(#terminal-3646376085-line-0)">
</text><text class="terminal-3646376085-r2" x="1464" y="44.4" textLength="12.2" clip-path="url(#terminal-3646376085-line-1)">
</text><text class="terminal-3646376085-r4" x="24.4" y="68.8" textLength="219.6" clip-path="url(#terminal-3646376085-line-2)">Name&#160;&#160;&#160;&#160;&#160;&#160;&#160;&#160;&#160;&#160;&#160;&#160;&#160;&#160;</text><text class="terminal-3646376085-r4" x="280.6" y="68.8" textLength="195.2" clip-path="url(#terminal-3646376085-line-2)">Segment&#160;&#160;&#160;&#160;&#160;&#160;&#160;&#160;&#160;</text><text class="terminal-3646376085-r4" x="512.4" y="68.8" textLength="170.8" clip-path="url(#terminal-3646376085-line-2)">Trigger&#160;&#160;&#160;&#160;&#160;&#160;&#160;</text><text class="terminal-3646376085-r4" x="719.8" y="68.8" textLength="207.4" clip-path="url(#terminal-3646376085-line-2)">Channel&#160;&#160;&#160;&#160;&#160;&#160;&#160;&#160;&#160;&#160;</text><text class="terminal-3646376085-r4" x="963.8" y="68.8" textLength="170.8" clip-path="url(#terminal-3646376085-line-2)">Template&#160;&#160;&#160;&#160;&#160;&#160;</text><text class="terminal-3646376085-r4" x="1171.2" y="68.8" textLength="122" clip-path="url(#terminal-3646376085-line-2)">Next&#160;&#160;&#160;&#160;&#160;&#160;</text><text class="terminal-3646376085-r4" x="1329.8" y="68.8" textLength="109.8" clip-path="url(#terminal-3646376085-line-2)">Status&#160;&#160;&#160;</text><text class="terminal-3646376085-r2" x="1464" y="68.8" textLength="12.2" clip-path="url(#terminal-3646376085-line-2)">
</text><text class="terminal-3646376085-r3" x="0" y="93.2" textLength="1464" clip-path="url(#terminal-3646376085-line-3)">&#160;━━━━━━━━━━━━━━━━━━━━━━━━━━━━━━━━━━━━━━━━━━━━━━━━━━━━━━━━━━━━━━━━━━━━━━━━━━━━━━━━━━━━━━━━━━━━━━━━━━━━━━━━━━━━━━━━━━━━━━&#160;</text><text class="terminal-3646376085-r2" x="1464" y="93.2" textLength="12.2" clip-path="url(#terminal-3646376085-line-3)">
</text><text class="terminal-3646376085-r5" x="24.4" y="117.6" textLength="219.6" clip-path="url(#terminal-3646376085-line-4)">Onboarding&#160;Drip&#160;&#160;&#160;</text><text class="terminal-3646376085-r5" x="280.6" y="117.6" textLength="195.2" clip-path="url(#terminal-3646376085-line-4)">New&#160;Leads&#160;&#160;&#160;&#160;&#160;&#160;&#160;</text><text class="terminal-3646376085-r5" x="512.4" y="117.6" textLength="170.8" clip-path="url(#terminal-3646376085-line-4)">Sign-up&#160;form&#160;&#160;</text><text class="terminal-3646376085-r5" x="719.8" y="117.6" textLength="207.4" clip-path="url(#terminal-3646376085-line-4)">Email&#160;&#160;&#160;&#160;&#160;&#160;&#160;&#160;&#160;&#160;&#160;&#160;</text><text class="terminal-3646376085-r5" x="963.8" y="117.6" textLength="170.8" clip-path="url(#terminal-3646376085-line-4)">Welcome&#160;Series</text><text class="terminal-3646376085-r5" x="1171.2" y="117.6" textLength="122" clip-path="url(#terminal-3646376085-line-4)">2025-12-22</text><text class="terminal-3646376085-r6" x="1329.8" y="117.6" textLength="109.8" clip-path="url(#terminal-3646376085-line-4)">Scheduled</text><text class="terminal-3646376085-r2" x="1464" y="117.6" textLength="12.2" clip-path="url(#terminal-3646376085-line-4)">
</text><text class="terminal-3646376085-r5" x="24.4" y="142" textLength="219.6" clip-path="url(#terminal-3646376085-line-5)">Win-back&#160;Sequence&#160;</text><text class="terminal-3646376085-r5" x="280.6" y="142" textLength="195.2" clip-path="url(#terminal-3646376085-line-5)">Dormant&#160;Accounts</text><text class="terminal-3646376085-r5" x="512.4" y="142" textLength="170.8" clip-path="url(#terminal-3646376085-line-5)">Inactivity&#160;30d</text><text class="terminal-3646376085-r5" x="719.8" y="142" textLength="207.4" clip-path="url(#terminal-3646376085-line-5)">Email&#160;&#160;&#160;&#160;&#160;&#160;&#160;&#160;&#160;&#160;&#160;&#160;</text><text class="terminal-3646376085-r5" x="963.8" y="142" textLength="170.8" clip-path="url(#terminal-3646376085-line-5)">Re-engagement&#160;</text><text class="terminal-3646376085-r5" x="1171.2" y="142" textLength="122" clip-path="url(#terminal-3646376085-line-5)">2025-12-22</text><text class="terminal-3646376085-r7" x="1329.8" y="142" textLength="109.8" clip-path="url(#terminal-3646376085-line-5)">Ready&#160;&#160;&#160;&#160;</text><text class="terminal-3646376085-r2" x="1464" y="142" textLength="12.2" clip-path="url(#terminal-3646376085-line-5)">
</text><text class="terminal-3646376085-r5" x="24.4" y="166.4" textLength="219.6" clip-path="url(#terminal-3646376085-line-6)">Post-demo&#160;&#160;&#160;&#160;&#160;&#160;&#160;&#160;&#160;</text><text class="terminal-3646376085-r5" x="280.6" y="166.4" textLength="195.2" clip-path="url(#terminal-3646376085-line-6)">Active&#160;Customers</text><text class="terminal-3646376085-r5" x="512.4" y="166.4" textLength="170.8" clip-path="url(#terminal-3646376085-line-6)">Demo&#160;completed</text><text class="terminal-3646376085-r5" x="719.8" y="166.4" textLength="207.4" clip-path="url(#terminal-3646376085-line-6)">Email&#160;+&#160;Call&#160;task</text><text class="terminal-3646376085-r5" x="963.8" y="166.4" textLength="170.8" clip-path="url(#terminal-3646376085-line-6)">Demo&#160;Recap&#160;&#160;&#160;&#160;</text><text class="terminal-3646376085-r5" x="1171.2" y="166.4" textLength="122" clip-path="url(#terminal-3646376085-line-6)">2025-12-21</text><text class="terminal-3646376085-r8" x="1329.8" y="166.4" textLength="109.8" clip-path="url(#terminal-3646376085-line-6)">Running&#160;&#160;</text><text class="terminal-3646376085-r2" x="1464" y="166.4" textLength="12.2" clip-path="url(#terminal-3646376085-line-6)">
</text><text class="terminal-3646376085-r5" x="24.4" y="190.8" textLength="219.6" clip-path="url(#terminal-3646376085-line-7)">Follow-up&#160;&#160;&#160;&#160;&#160;&#160;&#160;&#160;&#160;</text><text class="terminal-3646376085-r2" x="1464" y="190.8" textLength="12.2" clip-path="url(#terminal-3646376085-line-7)">
</text><text class="terminal-3646376085-r2" x="1464" y="215.2" textLength="12.2" clip-path="url(#terminal-3646376085-line-8)">
</text>
    </g>
    </g>
</svg>
